<svg width="42" height="31" viewBox="0 0 42 31" fill="none" xmlns="http://www.w3.org/2000/svg">
    <path d="M40.9557 24.0207L38.685 8.06234C38.1017 3.95817 34.5811 0.916504 30.4355 0.916504H11.5615C7.41593 0.916504 3.8953 3.95817 3.312 8.06234L1.04129 24.0207C0.582983 27.229 3.06201 30.0832 6.29099 30.0832C7.70758 30.0832 9.04084 29.5207 10.0408 28.5207L14.7488 23.8332H27.2481L31.9354 28.5207C32.9353 29.5207 34.2894 30.0832 35.6852 30.0832C38.935 30.0832 41.414 27.229 40.9557 24.0207ZM18.9153 13.4165H14.7488V17.5832H12.6656V13.4165H8.4992V11.3332H12.6656V7.1665H14.7488V11.3332H18.9153V13.4165ZM27.2481 11.3332C26.1024 11.3332 25.1649 10.3957 25.1649 9.24984C25.1649 8.10401 26.1024 7.1665 27.2481 7.1665C28.3939 7.1665 29.3314 8.10401 29.3314 9.24984C29.3314 10.3957 28.3939 11.3332 27.2481 11.3332ZM31.4146 17.5832C30.2688 17.5832 29.3314 16.6457 29.3314 15.4998C29.3314 14.354 30.2688 13.4165 31.4146 13.4165C32.5603 13.4165 33.4978 14.354 33.4978 15.4998C33.4978 16.6457 32.5603 17.5832 31.4146 17.5832Z" fill="#2A7AE4"/>
</svg>
